PathFileType  4	(X/Y/Z) C:\Users\antoi\Documents\MyRepositories\mobilecap\ResultsAnalysis
DataRate	CameraRate	NumFrames	NumMarkers	Units	OrigDataRate	OrigDataStartFrame	OrigNumFrames
100.0	100.0	4	51	mm	100.0	34	135
Frame#	Time	r_knee			r_shank_antsup			r_ankle			r_calc			r_5meta			r_toe			L_knee			L_shank_antsup			L_ankle			L_calc			L_5meta			L_toe			r_sh2			r_sh3			r_sh4			L_sh2			L_sh3			r_thigh1			r_thigh2			r_thigh3			r_thigh4			r_thigh5			L_thigh1			L_thigh2			L_thigh3			L_thigh4			r.ASIS			r.PSIS			L.ASIS			L.PSIS			C7			R_Shoulder			L_Shoulder			R_Sternum			L_Sternum			R_humerus			R_elbow_med			R_elbow_lat			R_forearm			R_wrist_radius			R_wrist_ulna			L_humerus			L_elbow_med			L_elbow_lat			L_forearm			L_wrist_radius			L_wrist_ulna			R_HJC			L_HJC			R_HJC_reg			L_HJC_reg			
		X1	Y1	Z1	X2	Y2	Z2	X3	Y3	Z3	X4	Y4	Z4	X5	Y5	Z5	X6	Y6	Z6	X7	Y7	Z7	X8	Y8	Z8	X9	Y9	Z9	X10	Y10	Z10	X11	Y11	Z11	X12	Y12	Z12	X13	Y13	Z13	X14	Y14	Z14	X15	Y15	Z15	X16	Y16	Z16	X17	Y17	Z17	X18	Y18	Z18	X19	Y19	Z19	X20	Y20	Z20	X21	Y21	Z21	X22	Y22	Z22	X23	Y23	Z23	X24	Y24	Z24	X25	Y25	Z25	X26	Y26	Z26	X27	Y27	Z27	X28	Y28	Z28	X29	Y29	Z29	X30	Y30	Z30	X31	Y31	Z31	X32	Y32	Z32	X33	Y33	Z33	X34	Y34	Z34	X35	Y35	Z35	X36	Y36	Z36	X37	Y37	Z37	X38	Y38	Z38	X39	Y39	Z39	X40	Y40	Z40	X41	Y41	Z41	X42	Y42	Z42	X43	Y43	Z43	X44	Y44	Z44	X45	Y45	Z45	X46	Y46	Z46	X47	Y47	Z47	X48	Y48	Z48	X49	Y49	Z49	X50	Y50	Z50	X51	Y51	Z51	

34	0.33000000	336.92828	503.28099	-19.33482	371.35861	431.04084	-33.71779	276.52801	99.85926	-46.07259	208.32748	68.63846	-82.26778	381.54612	42.08110	-15.39413	429.35828	69.65095	-71.70149	501.95114	531.87867	-311.30536	501.26159	435.05482	-318.25183	312.39049	189.22701	-280.79428	239.85389	185.20170	-224.88930	371.11474	84.89398	-324.22524	428.15127	94.32360	-279.92554	338.88735	320.27162	-12.15977	292.67886	449.21032	-7.81408	266.04367	339.36469	-9.03113	426.89512	484.97023	-309.38950	368.69894	376.80030	-310.51217	401.09071	822.46073	8.95392	398.50297	708.82444	4.65817	340.29543	687.30608	27.14168	287.76607	822.44792	26.75258	286.79319	705.52067	13.92576	408.22722	777.69417	-356.08899	482.18218	662.19858	-336.74531	319.65393	726.22460	-303.90871	399.60898	609.83338	-291.18297	413.29284	985.66637	-39.69390	220.61551	1023.21595	-116.96848	409.84500	961.94318	-290.55514	210.47662	1018.73901	-217.23634	255.15351	1436.60934	-168.25403	366.47929	1383.26942	-3.59439	308.81893	1396.72569	-356.22006	390.00309	1385.32343	-162.00037	389.19885	1388.99723	-206.13529	387.28600	1252.38967	58.27297	334.91604	1035.19648	36.54434	362.23127	1055.67281	101.44628	471.10660	962.93562	95.17901	549.45882	852.84874	82.76640	529.14380	837.23996	107.93705	306.86125	1281.03500	-419.17544	238.69917	1054.01789	-362.68645	259.95014	1071.88646	-437.63475	337.47810	981.67821	-425.32338	392.39314	833.37886	-415.59157	370.84258	827.41504	-443.07695	333.62608	906.20718	-56.89259	328.67432	891.59486	-262.78775	345.35963	906.45167	-64.41025	328.64245	899.07164	-229.72590	
35	0.34000000	339.83201	503.55022	-19.53191	373.43998	431.12391	-33.80089	276.85894	100.26468	-46.21036	208.56557	68.91439	-82.33322	381.60475	42.03579	-15.33484	429.59888	69.59776	-71.52421	515.38707	533.78203	-312.55649	518.77519	436.51712	-319.80815	345.63020	179.31283	-280.65212	274.23513	170.90453	-223.80758	410.04580	78.93936	-325.22545	467.33787	91.74735	-281.66929	340.33162	320.59801	-12.21634	294.85166	449.78288	-8.16255	267.56080	340.11575	-9.39937	441.52324	481.95601	-310.32377	390.14349	370.29559	-310.91696	409.92227	821.51790	8.89287	404.96535	708.26355	4.64011	346.90714	687.31531	26.67939	296.72426	823.32877	27.04479	293.48111	706.49032	13.56148	419.82111	779.77482	-356.87867	494.95634	664.88053	-337.87715	331.18712	727.43228	-306.10132	411.57468	611.19423	-294.10001	424.28285	985.63277	-39.30331	231.57744	1023.77056	-116.21773	420.27472	962.50439	-290.23618	221.18061	1019.52498	-216.40731	265.76128	1437.15364	-167.64136	378.63621	1384.53653	-4.04473	317.19152	1396.87112	-355.97148	400.62887	1386.23323	-162.60274	399.35881	1389.77704	-206.69412	401.04989	1254.09987	58.03790	350.03520	1036.45054	37.90816	377.98594	1057.46587	102.33759	488.21500	966.36392	94.48486	568.11165	857.63633	81.02276	548.40101	841.68880	106.48703	313.26904	1281.29615	-418.91650	244.27019	1054.88991	-361.15899	264.36336	1072.51355	-436.41542	340.97498	981.37059	-425.53384	394.19179	832.36785	-416.86560	371.98414	826.74910	-444.08366	344.41070	906.38563	-56.56467	339.04087	892.24958	-262.48181	356.16820	906.66068	-64.01629	339.01418	899.65622	-229.32101	
36	0.35000000	342.90214	503.77710	-19.68688	375.65327	431.16382	-33.89029	277.21011	100.67628	-46.34956	208.82707	69.22290	-82.37488	381.66555	42.00054	-15.26629	429.86398	69.54055	-71.34719	527.95532	534.94080	-313.89198	535.77895	437.56826	-321.49586	379.54717	169.48474	-281.28121	309.57472	156.71128	-223.68062	449.61624	73.49029	-326.87536	506.86459	89.73967	-283.93268	341.93132	320.87164	-12.25094	297.20454	450.32771	-8.43546	269.24505	340.84436	-9.67799	455.87757	478.08026	-311.56205	411.74353	363.33794	-311.92335	418.81728	820.44604	8.76721	411.55634	707.62446	4.52344	353.65427	687.27298	26.27552	305.80965	824.05941	27.36674	300.35203	707.37183	13.27471	431.22355	781.29433	-357.68340	507.19443	666.86930	-339.02639	342.39407	728.26461	-308.20960	422.71485	612.11195	-296.92670	435.36082	985.34867	-38.96067	242.58071	1024.04890	-115.48164	430.69439	962.72996	-289.93504	231.91398	1019.98011	-215.59858	276.36084	1437.41583	-167.19430	390.74852	1385.55345	-4.63216	325.65339	1396.70223	-355.82670	411.27804	1386.83664	-163.32811	409.56327	1390.22193	-207.37528	414.72969	1255.59895	57.67689	365.01042	1037.55841	39.26839	393.64342	1059.09888	103.16691	505.09836	969.61407	93.74891	586.53985	862.26322	79.28688	567.43762	846.01238	105.06743	319.87214	1281.25527	-418.70949	250.01421	1055.44637	-359.78630	268.94504	1072.89035	-435.32828	344.63116	980.84165	-425.91949	396.29644	831.24441	-418.37611	373.37865	825.91832	-445.25920	355.26392	906.31050	-56.23136	349.42341	892.56898	-262.16164	367.02582	906.63827	-63.61755	349.41745	899.92125	-228.89143	
37	0.36000000	346.16827	503.95672	-19.80470	378.03399	431.15253	-33.98279	277.58319	101.09211	-46.47720	209.08749	69.58193	-82.40397	381.72222	41.97980	-15.18574	430.14187	69.45638	-71.18361	539.66799	535.33764	-315.27731	552.26142	438.27569	-323.27574	414.03279	159.97732	-282.74889	345.75520	142.84099	-224.60083	489.75543	68.77522	-329.14115	546.55762	88.51147	-286.64490	343.69754	321.08458	-12.26106	299.75917	450.84543	-8.63858	271.10143	341.55270	-9.86991	470.02413	473.41582	-313.06864	433.48247	356.10357	-313.54203	427.82104	819.23941	8.56733	418.37543	706.86220	4.23262	360.57821	687.17857	25.94673	315.05846	824.63940	27.72141	307.45386	708.15261	13.08036	442.42968	782.22037	-358.48111	518.84713	668.09645	-340.16745	353.26812	728.70801	-310.08136	433.09448	612.53922	-299.53898	446.55676	984.82910	-38.68517	253.64326	1024.05278	-114.78405	441.16022	962.65418	-289.67736	242.68926	1020.10556	-214.83058	286.96517	1437.40861	-166.91852	402.82083	1386.32814	-5.36391	334.22718	1396.22142	-355.79128	421.95244	1387.14149	-164.18532	419.82457	1390.34122	-208.18236	428.29519	1256.89173	57.19702	379.76383	1038.53439	40.62825	409.19132	1060.55944	103.91286	521.65953	972.63357	93.01279	604.73906	866.70782	77.56922	586.23070	850.19296	103.68571	326.68890	1280.90436	-418.56432	255.94183	1055.67158	-358.56916	273.71082	1073.00769	-434.38243	348.48690	980.09134	-426.47928	398.68436	829.97319	-420.12643	375.05583	824.91828	-446.60576	366.22408	905.98918	-55.92103	359.87105	892.57561	-261.85713	377.98153	906.40465	-63.23041	359.89161	899.88541	-228.45560	
